<?xml version="1.0" standalone="no"?><!DOCTYPE svg PUBLIC "-//W3C//DTD SVG 1.1//EN" "http://www.w3.org/Graphics/SVG/1.1/DTD/svg11.dtd"><svg t="1723729922780" class="icon" viewBox="0 0 1024 1024" version="1.1" xmlns="http://www.w3.org/2000/svg" p-id="40235" xmlns:xlink="http://www.w3.org/1999/xlink" width="200" height="200"><path d="M845.395742 0.00307H316.445237c-65.755413 0-121.107926 44.93938-136.889307 105.872988h-3.859899c-78.16501 0-141.787858 63.275949-141.787858 141.369328v634.821446c0 78.302132 63.48675 141.373421 141.787858 141.373421h563.410238c78.166033 0 141.783765-63.276972 141.783765-141.373421v-4.200659c60.865047-15.578767 105.872988-71.13594 105.872988-137.372305V141.786835c0-78.302132-63.686294-141.783765-141.36728-141.783765zM288.32282 758.756759c13.380712 13.316244 13.231309 35.133066 0.221034 48.820769 0.200567-0.191358 0.405228-0.375552 0.602725-0.57305l-1.170659 1.172705c0.194428-0.195451 0.377599-0.400112 0.567934-0.599655-13.833012 13.192424-35.984455 12.747287-49.297629-0.639565L114.898522 682.594353c-13.78594-13.786963-13.853478-36.122601-0.273222-49.696716l128.480825-128.480825c13.343873-13.343873 34.512945-13.836082 48.345956-1.225917a35.160696 35.160696 0 0 0-1.061165-1.12154l2.206241 2.205218a35.590483 35.590483 0 0 0-1.145076-1.084701c12.500671 13.709192 12.143538 34.958082-1.33848 48.505591L185.689609 656.057033l102.633211 102.699726z m209.880496-335.472536l-51.486474 390.963195c-1.92688 15.02516-16.26438 26.327543-31.772539 24.398616-15.097814-1.93302-26.468759-16.057673-24.472294-31.498294l51.487497-390.958077c1.999534-15.096791 16.269496-26.399174 31.777655-24.403733 15.096791 1.863435 26.466712 16.058696 24.466155 31.498293z m286.261887 255.103331L655.983355 806.868379c-13.21289 13.21289-34.098507 13.818685-47.936635 1.585096 0.237406 0.252756 0.471743 0.508582 0.719382 0.756221l-2.273779-2.205218c0.505512 0.503465 1.026373 0.982371 1.554397 1.448997-12.915109-13.690773-12.677702-35.197534 0.92302-48.871934L713.398847 655.227134 610.76666 552.59597c-13.396061-13.396061-13.231309-35.231303-0.196474-48.923099-0.2108 0.200567-0.426717 0.393972-0.633425 0.601702l1.172705-1.170659c-0.185218 0.186241-0.358156 0.379645-0.538257 0.568957 13.837105-13.159678 35.963989-12.634724 49.273069 0.67538l124.342587 124.342587c13.784916 13.78594 13.853478 36.115437 0.278338 49.696716z m152.879441 62.10529c0 38.597971-23.296519 71.546285-56.45461 85.40181V247.245386c0-78.302132-63.481633-141.369327-141.783765-141.369328H231.594988c13.853478-33.153998 46.665693-56.45461 84.850249-56.45461h528.950505c50.525592 0 91.948903 41.429451 91.948902 92.365387v598.706009z" fill="#2c2c2c" p-id="40236"></path></svg>